<svg xmlns="http://www.w3.org/2000/svg" width="32" height="32" viewBox="0 0 24 24"><!-- Icon from Material Symbols Light by Google - https://github.com/google/material-design-icons/blob/master/LICENSE --><path fill="#888888" d="M4.405 12.635q-1.001 0-1.703-.705T2 10.218t.7-1.699t1.703-.692q1 0 1.703.696t.702 1.689q0 1.01-.701 1.716q-.701.707-1.702.707m-.79 5.596q-.261 0-.438-.177T3 17.616t.177-.439t.439-.177h16.769q.261 0 .438.177t.177.439t-.177.438t-.438.177zm8.386-5.616q-1.001 0-1.703-.7q-.702-.701-.702-1.702t.701-1.703t1.702-.702t1.703.7q.702.701.702 1.702t-.701 1.703t-1.702.702m7.596 0q-1 0-1.703-.7q-.702-.701-.702-1.702q0-1.002.701-1.704q.701-.701 1.702-.701t1.703.7t.702 1.703t-.7 1.703t-1.703.702"/></svg>